# xmcd
#
# Track frame offsets: 
#        150
#        17227
#        35011
#        54030
#        65548
#        82215
#        102557
#        117563
#        133967
#        156588
#
# Disc length: 2311 seconds
#
# Revision: 1
# Processed by: cddbd v1.5.2PL0 Copyright (c) Steve Scherf et al.
# Submitted via: ExactAudioCopy v0.99pb5
#
DISCID=9509050a
DTITLE=Various Artist - Gotta Love the Holidays
DYEAR=2003
DGENRE=Holiday
TTITLE0=Shawn King - Gotta Love the Holidays [ft. Kenny G]
TTITLE1=Micheal Bublé - White Christmas
TTITLE2=Celine Dion - The Christmas Song
TTITLE3=Jim Brickman - It Came Upon a Midnight Clear
TTITLE4=Renee Olstead - Blue Christmas
TTITLE5=Elton John - Step into Christmas
TTITLE6=Barry Manilow - I'll Be Home for Christmas
TTITLE7=Sharon Stone - T'was the Night Before Christmas [ft. Larry Kin
TTITLE7=g and Jim Brickman]
TTITLE8=Natalie Cole - Silent Night
TTITLE9=Shawn King - Gotta Love The Holidays [Country Version]
EXTD=
EXTT0=
EXTT1=
EXTT2=
EXTT3=
EXTT4=
EXTT5=
EXTT6=
EXTT7=
EXTT8=
EXTT9=
PLAYORDER=
